<svg width="549" height="173" viewBox="0 0 549 173" fill="none" xmlns="http://www.w3.org/2000/svg">
<path d="M204.82 29V8H213.46C215.32 8 216.91 8.3 218.23 8.9C219.57 9.5 220.6 10.36 221.32 11.48C222.04 12.6 222.4 13.93 222.4 15.47C222.4 17.01 222.04 18.34 221.32 19.46C220.6 20.56 219.57 21.41 218.23 22.01C216.91 22.59 215.32 22.88 213.46 22.88H206.98L208.72 21.11V29H204.82ZM218.56 29L213.25 21.38H217.42L222.76 29H218.56ZM208.72 21.53L206.98 19.67H213.28C215 19.67 216.29 19.3 217.15 18.56C218.03 17.82 218.47 16.79 218.47 15.47C218.47 14.13 218.03 13.1 217.15 12.38C216.29 11.66 215 11.3 213.28 11.3H206.98L208.72 9.38V21.53ZM233.933 29.21C232.153 29.21 230.593 28.86 229.253 28.16C227.933 27.44 226.903 26.46 226.163 25.22C225.443 23.98 225.083 22.57 225.083 20.99C225.083 19.39 225.433 17.98 226.133 16.76C226.853 15.52 227.833 14.55 229.073 13.85C230.333 13.15 231.763 12.8 233.363 12.8C234.923 12.8 236.313 13.14 237.533 13.82C238.753 14.5 239.713 15.46 240.413 16.7C241.113 17.94 241.463 19.4 241.463 21.08C241.463 21.24 241.453 21.42 241.433 21.62C241.433 21.82 241.423 22.01 241.403 22.19H228.053V19.7H239.423L237.953 20.48C237.973 19.56 237.783 18.75 237.383 18.05C236.983 17.35 236.433 16.8 235.733 16.4C235.053 16 234.263 15.8 233.363 15.8C232.443 15.8 231.633 16 230.933 16.4C230.253 16.8 229.713 17.36 229.313 18.08C228.933 18.78 228.743 19.61 228.743 20.57V21.17C228.743 22.13 228.963 22.98 229.403 23.72C229.843 24.46 230.463 25.03 231.263 25.43C232.063 25.83 232.983 26.03 234.023 26.03C234.923 26.03 235.733 25.89 236.453 25.61C237.173 25.33 237.813 24.89 238.373 24.29L240.383 26.6C239.663 27.44 238.753 28.09 237.653 28.55C236.573 28.99 235.333 29.21 233.933 29.21ZM254.496 29V25.76L254.286 25.07V19.4C254.286 18.3 253.956 17.45 253.296 16.85C252.636 16.23 251.636 15.92 250.296 15.92C249.396 15.92 248.506 16.06 247.626 16.34C246.766 16.62 246.036 17.01 245.436 17.51L243.966 14.78C244.826 14.12 245.846 13.63 247.026 13.31C248.226 12.97 249.466 12.8 250.746 12.8C253.066 12.8 254.856 13.36 256.116 14.48C257.396 15.58 258.036 17.29 258.036 19.61V29H254.496ZM249.456 29.21C248.256 29.21 247.206 29.01 246.306 28.61C245.406 28.19 244.706 27.62 244.206 26.9C243.726 26.16 243.486 25.33 243.486 24.41C243.486 23.51 243.696 22.7 244.116 21.98C244.556 21.26 245.266 20.69 246.246 20.27C247.226 19.85 248.526 19.64 250.146 19.64H254.796V22.13H250.416C249.136 22.13 248.276 22.34 247.836 22.76C247.396 23.16 247.176 23.66 247.176 24.26C247.176 24.94 247.446 25.48 247.986 25.88C248.526 26.28 249.276 26.48 250.236 26.48C251.156 26.48 251.976 26.27 252.696 25.85C253.436 25.43 253.966 24.81 254.286 23.99L254.916 26.24C254.556 27.18 253.906 27.91 252.966 28.43C252.046 28.95 250.876 29.21 249.456 29.21ZM262.849 29V6.74H266.599V29H262.849ZM271.521 29V12.98H275.271V29H271.521ZM273.411 10.34C272.711 10.34 272.131 10.12 271.671 9.68C271.231 9.24 271.011 8.71 271.011 8.09C271.011 7.45 271.231 6.92 271.671 6.5C272.131 6.06 272.711 5.84 273.411 5.84C274.111 5.84 274.681 6.05 275.121 6.47C275.581 6.87 275.811 7.38 275.811 8C275.811 8.66 275.591 9.22 275.151 9.68C274.711 10.12 274.131 10.34 273.411 10.34ZM278.872 29V26.63L288.742 14.69L289.432 15.98H279.052V12.98H292.432V15.35L282.562 27.29L281.812 26H292.702V29H278.872ZM306.029 29V25.76L305.819 25.07V19.4C305.819 18.3 305.489 17.45 304.829 16.85C304.169 16.23 303.169 15.92 301.829 15.92C300.929 15.92 300.039 16.06 299.159 16.34C298.299 16.62 297.569 17.01 296.969 17.51L295.499 14.78C296.359 14.12 297.379 13.63 298.559 13.31C299.759 12.97 300.999 12.8 302.279 12.8C304.599 12.8 306.389 13.36 307.649 14.48C308.929 15.58 309.569 17.29 309.569 19.61V29H306.029ZM300.989 29.21C299.789 29.21 298.739 29.01 297.839 28.61C296.939 28.19 296.239 27.62 295.739 26.9C295.259 26.16 295.019 25.33 295.019 24.41C295.019 23.51 295.229 22.7 295.649 21.98C296.089 21.26 296.799 20.69 297.779 20.27C298.759 19.85 300.059 19.64 301.679 19.64H306.329V22.13H301.949C300.669 22.13 299.809 22.34 299.369 22.76C298.929 23.16 298.709 23.66 298.709 24.26C298.709 24.94 298.979 25.48 299.519 25.88C300.059 26.28 300.809 26.48 301.769 26.48C302.689 26.48 303.509 26.27 304.229 25.85C304.969 25.43 305.499 24.81 305.819 23.99L306.449 26.24C306.089 27.18 305.439 27.91 304.499 28.43C303.579 28.95 302.409 29.21 300.989 29.21ZM321.761 29.21C320.081 29.21 318.581 28.86 317.261 28.16C315.961 27.44 314.941 26.46 314.201 25.22C313.461 23.98 313.091 22.57 313.091 20.99C313.091 19.39 313.461 17.98 314.201 16.76C314.941 15.52 315.961 14.55 317.261 13.85C318.581 13.15 320.081 12.8 321.761 12.8C323.321 12.8 324.691 13.12 325.871 13.76C327.071 14.38 327.981 15.3 328.601 16.52L325.721 18.2C325.241 17.44 324.651 16.88 323.951 16.52C323.271 16.16 322.531 15.98 321.731 15.98C320.811 15.98 319.981 16.18 319.241 16.58C318.501 16.98 317.921 17.56 317.501 18.32C317.081 19.06 316.871 19.95 316.871 20.99C316.871 22.03 317.081 22.93 317.501 23.69C317.921 24.43 318.501 25 319.241 25.4C319.981 25.8 320.811 26 321.731 26C322.531 26 323.271 25.82 323.951 25.46C324.651 25.1 325.241 24.54 325.721 23.78L328.601 25.46C327.981 26.66 327.071 27.59 325.871 28.25C324.691 28.89 323.321 29.21 321.761 29.21ZM320.201 35.84C319.661 35.84 319.161 35.78 318.701 35.66C318.241 35.56 317.821 35.41 317.441 35.21L318.131 33.44C318.451 33.6 318.771 33.72 319.091 33.8C319.431 33.88 319.791 33.92 320.171 33.92C320.751 33.92 321.161 33.82 321.401 33.62C321.641 33.42 321.761 33.16 321.761 32.84C321.761 32.54 321.631 32.3 321.371 32.12C321.131 31.94 320.731 31.85 320.171 31.85H319.241L320.051 28.79H322.091L321.671 30.47C322.551 30.57 323.201 30.85 323.621 31.31C324.061 31.79 324.281 32.35 324.281 32.99C324.281 33.87 323.911 34.56 323.171 35.06C322.431 35.58 321.441 35.84 320.201 35.84ZM341.713 29V25.76L341.503 25.07V19.4C341.503 18.3 341.173 17.45 340.513 16.85C339.853 16.23 338.853 15.92 337.513 15.92C336.613 15.92 335.723 16.06 334.843 16.34C333.983 16.62 333.253 17.01 332.653 17.51L331.183 14.78C332.043 14.12 333.063 13.63 334.243 13.31C335.443 12.97 336.683 12.8 337.963 12.8C340.283 12.8 342.073 13.36 343.333 14.48C344.613 15.58 345.253 17.29 345.253 19.61V29H341.713ZM336.673 29.21C335.473 29.21 334.423 29.01 333.523 28.61C332.623 28.19 331.923 27.62 331.423 26.9C330.943 26.16 330.703 25.33 330.703 24.41C330.703 23.51 330.913 22.7 331.333 21.98C331.773 21.26 332.483 20.69 333.463 20.27C334.443 19.85 335.743 19.64 337.363 19.64H342.013V22.13H337.633C336.353 22.13 335.493 22.34 335.053 22.76C334.613 23.16 334.393 23.66 334.393 24.26C334.393 24.94 334.663 25.48 335.203 25.88C335.743 26.28 336.493 26.48 337.453 26.48C338.373 26.48 339.193 26.27 339.913 25.85C340.653 25.43 341.183 24.81 341.503 23.99L342.133 26.24C341.773 27.18 341.123 27.91 340.183 28.43C339.263 28.95 338.093 29.21 336.673 29.21ZM340.453 10.79C339.973 10.79 339.533 10.7 339.133 10.52C338.753 10.32 338.403 10.09 338.083 9.83C337.783 9.55 337.493 9.31 337.213 9.11C336.933 8.91 336.653 8.81 336.373 8.81C335.953 8.81 335.613 8.97 335.353 9.29C335.093 9.61 334.943 10.05 334.903 10.61H332.893C332.933 9.37 333.233 8.39 333.793 7.67C334.373 6.95 335.153 6.59 336.133 6.59C336.613 6.59 337.053 6.69 337.453 6.89C337.853 7.09 338.203 7.32 338.503 7.58C338.823 7.84 339.123 8.07 339.403 8.27C339.683 8.47 339.953 8.57 340.213 8.57C340.633 8.57 340.973 8.42 341.233 8.12C341.513 7.82 341.663 7.4 341.683 6.86H343.693C343.673 8.02 343.373 8.97 342.793 9.71C342.213 10.43 341.433 10.79 340.453 10.79ZM357.295 29.21C355.655 29.21 354.195 28.86 352.915 28.16C351.635 27.44 350.625 26.46 349.885 25.22C349.145 23.98 348.775 22.57 348.775 20.99C348.775 19.39 349.145 17.98 349.885 16.76C350.625 15.52 351.635 14.55 352.915 13.85C354.195 13.15 355.655 12.8 357.295 12.8C358.955 12.8 360.425 13.15 361.705 13.85C363.005 14.55 364.015 15.51 364.735 16.73C365.475 17.95 365.845 19.37 365.845 20.99C365.845 22.57 365.475 23.98 364.735 25.22C364.015 26.46 363.005 27.44 361.705 28.16C360.425 28.86 358.955 29.21 357.295 29.21ZM357.295 26C358.215 26 359.035 25.8 359.755 25.4C360.475 25 361.035 24.42 361.435 23.66C361.855 22.9 362.065 22.01 362.065 20.99C362.065 19.95 361.855 19.06 361.435 18.32C361.035 17.56 360.475 16.98 359.755 16.58C359.035 16.18 358.225 15.98 357.325 15.98C356.405 15.98 355.585 16.18 354.865 16.58C354.165 16.98 353.605 17.56 353.185 18.32C352.765 19.06 352.555 19.95 352.555 20.99C352.555 22.01 352.765 22.9 353.185 23.66C353.605 24.42 354.165 25 354.865 25.4C355.585 25.8 356.395 26 357.295 26Z" fill="white"/>
<path d="M89.783 108.682H93.8802C94.3407 108.682 94.7822 108.863 95.1078 109.185C95.4334 109.507 95.6163 109.944 95.6163 110.4V153.698C95.6163 153.987 95.7325 154.265 95.9392 154.47C96.146 154.674 96.4264 154.789 96.7187 154.789H122.665C123.125 154.789 123.567 154.97 123.892 155.293C124.218 155.615 124.401 156.052 124.401 156.508V159.584C124.401 160.04 124.218 160.477 123.892 160.799C123.567 161.121 123.125 161.302 122.665 161.302H89.783C89.3226 161.302 88.881 161.121 88.5554 160.799C88.2298 160.477 88.0469 160.04 88.0469 159.584V110.409C88.0458 110.182 88.0898 109.958 88.1765 109.748C88.2633 109.539 88.391 109.349 88.5523 109.188C88.7136 109.028 88.9054 108.9 89.1166 108.813C89.3278 108.726 89.5543 108.682 89.783 108.682Z" fill="white"/>
<path d="M166.545 148.165H139.757C139.54 148.165 139.327 148.227 139.145 148.345C138.964 148.462 138.82 148.63 138.733 148.826L133.637 160.289C133.501 160.598 133.276 160.86 132.991 161.043C132.705 161.227 132.371 161.323 132.031 161.32H128.064C127.766 161.329 127.47 161.261 127.206 161.124C126.942 160.987 126.718 160.785 126.556 160.537C126.393 160.289 126.298 160.004 126.28 159.709C126.261 159.414 126.32 159.12 126.45 158.854L148.95 109.67C149.088 109.366 149.312 109.108 149.596 108.928C149.879 108.748 150.21 108.654 150.547 108.656H155.816C156.151 108.655 156.48 108.751 156.762 108.931C157.044 109.11 157.267 109.367 157.404 109.67L179.974 158.845C180.099 159.109 180.154 159.399 180.135 159.689C180.115 159.979 180.022 160.26 179.863 160.504C179.704 160.749 179.486 160.95 179.227 161.088C178.969 161.226 178.679 161.297 178.385 161.294H174.262C173.923 161.295 173.591 161.198 173.308 161.015C173.024 160.832 172.8 160.57 172.665 160.263L167.535 148.826C167.449 148.635 167.311 148.471 167.136 148.354C166.961 148.237 166.756 148.171 166.545 148.165ZM164.062 140.947L153.932 118.125C153.863 117.975 153.752 117.848 153.612 117.759C153.472 117.67 153.309 117.622 153.142 117.622C152.976 117.622 152.813 117.67 152.673 117.759C152.533 117.848 152.421 117.975 152.352 118.125L142.205 140.947C142.147 141.077 142.123 141.22 142.135 141.362C142.147 141.503 142.194 141.64 142.273 141.759C142.351 141.878 142.458 141.976 142.584 142.045C142.71 142.113 142.851 142.149 142.995 142.15H163.29C163.432 142.146 163.571 142.108 163.695 142.039C163.819 141.969 163.923 141.871 163.999 141.752C164.076 141.633 164.121 141.498 164.132 141.357C164.143 141.217 164.119 141.076 164.062 140.947Z" fill="white"/>
<path d="M188.94 108.682H193.037C193.498 108.682 193.939 108.863 194.265 109.185C194.591 109.507 194.774 109.944 194.774 110.4V159.592C194.774 160.048 194.591 160.485 194.265 160.808C193.939 161.13 193.498 161.311 193.037 161.311H188.94C188.48 161.311 188.038 161.13 187.713 160.808C187.387 160.485 187.204 160.048 187.204 159.592V110.409C187.203 110.182 187.247 109.958 187.334 109.748C187.421 109.539 187.548 109.349 187.71 109.188C187.871 109.028 188.063 108.9 188.274 108.813C188.485 108.726 188.712 108.682 188.94 108.682Z" fill="white"/>
<path d="M212.838 160.081C210.068 159.234 207.465 157.926 205.138 156.214C204.821 155.973 204.598 155.631 204.506 155.246C204.415 154.861 204.46 154.456 204.635 154.101L205.919 151.428C206.024 151.194 206.18 150.987 206.377 150.82C206.573 150.654 206.804 150.533 207.054 150.466C207.303 150.399 207.565 150.389 207.819 150.435C208.073 150.481 208.314 150.582 208.524 150.732C210.424 152.043 212.498 153.09 214.687 153.843C217.816 154.973 221.121 155.555 224.452 155.561C228.85 155.561 232.14 154.819 234.322 153.336C235.333 152.712 236.165 151.842 236.739 150.808C237.312 149.774 237.606 148.612 237.595 147.433C237.624 146.616 237.48 145.803 237.172 145.045C236.864 144.287 236.399 143.602 235.806 143.033C234.542 141.868 233.038 140.989 231.397 140.456C229.661 139.883 227.192 139.207 223.992 138.428C220.703 137.687 217.466 136.731 214.305 135.566C211.871 134.635 209.706 133.124 208.003 131.167C206.267 129.191 205.399 126.521 205.399 123.159C205.365 120.463 206.145 117.818 207.638 115.563C209.328 113.147 211.689 111.267 214.435 110.15C218.011 108.697 221.856 108.006 225.72 108.122C228.85 108.118 231.967 108.522 234.99 109.325C237.281 109.903 239.481 110.791 241.527 111.963C241.893 112.173 242.169 112.508 242.303 112.905C242.438 113.302 242.421 113.734 242.256 114.12L241.075 116.964C240.983 117.189 240.844 117.392 240.667 117.56C240.489 117.728 240.278 117.857 240.047 117.938C239.815 118.019 239.569 118.051 239.325 118.031C239.08 118.011 238.842 117.94 238.628 117.823C236.892 116.894 235.062 116.151 233.168 115.606C230.743 114.882 228.226 114.5 225.694 114.472C221.388 114.472 218.159 115.248 216.006 116.8C215.004 117.457 214.184 118.352 213.62 119.402C213.056 120.452 212.766 121.626 212.777 122.815C212.746 123.635 212.893 124.451 213.207 125.21C213.522 125.969 213.997 126.652 214.6 127.215C215.907 128.394 217.447 129.292 219.122 129.852C221.529 130.646 223.978 131.309 226.457 131.837C229.737 132.573 232.962 133.529 236.11 134.699C238.53 135.643 240.686 137.149 242.395 139.089C244.131 141.043 244.999 143.675 244.999 146.986C245.028 149.677 244.239 152.315 242.733 154.556C241.009 157.002 238.593 158.888 235.789 159.978C232.169 161.399 228.293 162.074 224.4 161.963C220.469 161.958 216.564 161.322 212.838 160.081Z" fill="white"/>
<path d="M73.8973 132.122H55.7116L49.1491 117.609C48.9209 117.096 48.5464 116.66 48.0714 116.355C47.5965 116.049 47.0418 115.888 46.4755 115.89H46.3887C45.8136 115.912 45.2582 116.104 44.7941 116.44C44.3299 116.777 43.9783 117.244 43.7846 117.781L36.2412 138.231L30.5034 124.053C30.294 123.534 29.936 123.087 29.4734 122.766C29.0108 122.446 28.4637 122.266 27.8992 122.249H27.7777C27.2163 122.253 26.6682 122.418 26.1987 122.723C25.7293 123.027 25.3583 123.459 25.1301 123.967L21.3888 132.147H5.94616C6.60566 124.839 9.76197 117.971 14.8945 112.677C20.027 107.383 26.8291 103.979 34.1789 103.026C41.5287 102.073 48.9871 103.628 55.3239 107.435C61.6607 111.242 66.4974 117.074 69.0362 123.967C69.2996 124.684 69.8398 125.268 70.538 125.591C71.2377 125.909 72.0355 125.943 72.7602 125.686C73.1195 125.556 73.4495 125.358 73.7313 125.102C74.0131 124.846 74.2411 124.538 74.4024 124.195C74.5636 123.852 74.6549 123.48 74.6711 123.102C74.6872 122.724 74.6278 122.346 74.4963 121.991C71.4028 113.597 65.4219 106.55 57.6031 102.086C49.7842 97.622 40.627 96.026 31.738 97.5783C22.8491 99.1305 14.7963 103.732 8.99263 110.575C3.18899 117.418 0.00523242 126.065 0 135C0 135.378 0.075217 135.752 0.221357 136.102C0.367496 136.451 0.581696 136.768 0.851727 137.035C1.12176 137.303 1.44233 137.515 1.79514 137.659C2.14795 137.804 2.5261 137.879 2.90798 137.879H23.2899C23.8517 137.876 24.4008 137.712 24.8706 137.407C25.3405 137.102 25.711 136.669 25.9374 136.16L27.6735 132.439L33.7499 147.347C33.964 147.881 34.335 148.338 34.8149 148.66C35.2948 148.981 35.8613 149.153 36.4409 149.152H36.4582C37.0291 149.128 37.5802 148.938 38.0432 148.607C38.5061 148.275 38.8605 147.816 39.0624 147.287L46.736 126.433L51.2151 136.177C51.4376 136.68 51.8012 137.11 52.2628 137.414C52.7244 137.719 53.2646 137.886 53.8193 137.896H70.8591C70.1719 145.183 67.0024 152.022 61.8709 157.291C56.7394 162.559 49.9507 165.945 42.6192 166.891C35.2877 167.837 27.8491 166.288 21.5243 162.498C15.1995 158.708 10.3643 152.902 7.81248 146.033C7.67824 145.674 7.47216 145.346 7.20663 145.069C6.9411 144.791 6.6216 144.57 6.26734 144.417C5.92173 144.256 5.54712 144.163 5.1652 144.146C4.78328 144.128 4.40163 144.186 4.04237 144.315C3.6831 144.445 3.35335 144.643 3.0722 144.9C2.79106 145.156 2.56412 145.466 2.40451 145.809C2.24123 146.151 2.14867 146.522 2.13227 146.9C2.11587 147.277 2.17597 147.655 2.30902 148.009C5.40254 156.403 11.3834 163.45 19.2023 167.914C27.0211 172.378 36.1783 173.974 45.0673 172.422C53.9562 170.869 62.009 166.268 67.8127 159.425C73.6163 152.582 76.8001 143.935 76.8053 135C76.8053 134.237 76.4989 133.504 75.9536 132.965C75.4082 132.425 74.6686 132.122 73.8973 132.122Z" fill="white"/>
<path d="M387.904 98L387.356 103.282H432.543L431.325 115.207H402.505L401.233 127.725H427.453L426.221 139.837H400.001L397.647 162.951H381.157L380.104 173H388.082H425.468L433.597 98H387.904Z" fill="white"/>
<path fill-rule="evenodd" clip-rule="evenodd" d="M466.987 121.286C467.068 120.308 466.9 119.323 466.505 118.451C466.109 117.578 465.503 116.853 464.757 116.363C463.132 115.011 461.17 114.288 459.16 114.3H448.007L446.529 128.819H457.832C460.043 128.879 462.22 128.188 464.086 126.834C464.905 126.219 465.591 125.4 466.093 124.44C466.596 123.479 466.901 122.401 466.987 121.286ZM480.973 162.951H463.183L463.662 145.76C463.531 144.616 463.196 143.515 462.677 142.525C461.992 141.474 461.107 140.614 460.09 140.009C458.421 140.009 455.634 139.951 451.729 139.837L445.393 139.649L443.053 162.951H426.371L432.433 103.282H467.015C471.352 103.143 475.631 104.446 479.331 107.033C483.436 110.034 485.215 114.05 484.695 119.129C484.319 122.663 482.784 125.902 480.398 128.194C477.912 130.634 474.944 132.35 471.75 133.195L471.668 133.929C473.022 134.109 474.353 134.465 475.636 134.992C479.742 136.727 480.59 139.681 481.001 144.572L480.973 161.482L486.885 103.282H510.655L529.321 142.775L533.386 103.282H549L542.938 162.951H520.262L500.597 122.536L496.492 162.951H480.973ZM383.962 136.539C383.05 145.656 380.454 152.365 376.175 156.668C371.085 161.878 363.079 164.451 352.159 164.389C341.092 164.389 333.516 162.055 329.428 157.387C325.679 153.074 324.31 146.119 325.323 136.524L328.648 103.282H345.344L341.964 136.539C341.444 141.665 342.128 145.713 344.03 148.636C345.04 150.112 346.352 151.283 347.85 152.046C349.348 152.809 350.987 153.14 352.624 153.011C356.02 153.106 359.327 151.771 361.916 149.261C365.051 145.958 366.948 141.401 367.212 136.539L370.647 103.282H387.329L383.962 136.539Z" fill="white"/>
</svg>
